<svg height="512pt" viewBox="-120 0 512 512" width="512pt" xmlns="http://www.w3.org/2000/svg"><path d="m74.828125 328.125h123c28.226563 0 51.917969-21.28125 54.933594-49.347656l14.316406-133.226563c8.351563-77.738281-52.5625-145.550781-130.75-145.550781-78.183594 0-139.101563 67.8125-130.746094 145.550781l14.316407 133.226563c3.015624 28.066406 26.703124 49.347656 54.929687 49.347656zm0 0" fill="#ba6f3c"/><path d="m33.074219 126.445312c-3.152344.339844-5.902344 2.613282-6.683594 5.875-.992187 4.152344 1.570313 8.320313 5.71875 9.3125 3.304687.789063 7.464844 1.644532 12.261719 2.359376v-15.511719c-4.308594-.597657-8.117188-1.324219-11.296875-2.035157zm0 0" fill="#aa5b26"/><path d="m255.105469 167.402344 3.457031-26.015625c.5625-4.230469-2.410156-8.113281-6.640625-8.675781-4.234375-.5625-8.113281 2.410156-8.675781 6.640624l-3.726563 28.050782zm0 0" fill="#aa5b26"/><path d="m267.84375 417.65625v84.042969c0 5.6875-4.613281 10.300781-10.304688 10.300781h-242.421874c-5.6875 0-10.300782-4.613281-10.300782-10.300781v-84.042969c0-37.355469 20.375-69.929688 50.621094-87.226562 14.671875-8.40625 31.667969-13.207032 49.789062-13.207032h62.195313c18.488281 0 35.816406 5.007813 50.703125 13.734375 29.742188 17.429688 49.71875 49.714844 49.71875 86.699219zm0 0" fill="#faaa3c"/><path d="m217.671875 330.957031c-2.957031 42.34375-38.242187 75.757813-81.328125 75.757813-43.273438 0-78.664062-33.699219-81.359375-76.285156 14.679687-8.402344 31.671875-13.199219 49.796875-13.199219h62.1875c18.496094 0 35.824219 4.996093 50.703125 13.726562zm0 0" fill="#ffeb9b"/><g fill="#f8c298"><path d="m136.328125 355.519531c-12.804687 0-23.183594-10.378906-23.183594-23.179687v-65.035156h46.367188v65.035156c0 12.800781-10.378907 23.179687-23.183594 23.179687zm0 0"/><path d="m272.65625 188.96875c0 17.238281-13.972656 31.214844-31.210938 31.214844-17.238281 0-31.214843-13.976563-31.214843-31.214844s13.976562-31.210938 31.214843-31.210938c17.238282 0 31.210938 13.972657 31.210938 31.210938zm0 0"/><path d="m62.425781 188.96875c0 17.238281-13.972656 31.214844-31.210937 31.214844-17.242188 0-31.214844-13.976563-31.214844-31.214844s13.972656-31.210938 31.214844-31.210938c17.238281 0 31.210937 13.972657 31.210937 31.210938zm0 0"/></g><path d="m37.941406 100.441406 14.910156 119.375c5.261719 42.101563 41.046876 73.695313 83.476563 73.695313s78.21875-31.59375 83.476563-73.695313l14.910156-119.375zm0 0" fill="#ffd6c0"/><path d="m90.636719 194.910156c-4.171875 0-7.605469-3.320312-7.71875-7.515625l-.136719-4.949219c-.117188-4.265624 3.246094-7.816406 7.511719-7.933593 4.273437-.132813 7.820312 3.246093 7.9375 7.511719l.132812 4.949218c.117188 4.265625-3.246093 7.816406-7.511719 7.933594-.070312 0-.144531.003906-.214843.003906zm0 0" fill="#aa5b26"/><path d="m182.148438 194.910156c-4.167969 0-7.605469-3.320312-7.71875-7.515625l-.132813-4.949219c-.117187-4.265624 3.242187-7.816406 7.511719-7.933593 4.269531-.132813 7.816406 3.246093 7.933594 7.511719l.136718 4.949218c.113282 4.265625-3.246094 7.816406-7.515625 7.933594-.070312 0-.144531.003906-.214843.003906zm0 0" fill="#aa5b26"/><path d="m136.328125 238.757812c-13.4375 0-26.175781-6.511718-34.074219-17.414062-2.5-3.457031-1.726562-8.289062 1.726563-10.792969 3.460937-2.5 8.289062-1.726562 10.789062 1.726563 5 6.90625 13.058594 11.027344 21.558594 11.027344s16.558594-4.121094 21.558594-11.027344c2.503906-3.457032 7.332031-4.226563 10.789062-1.726563 3.457031 2.503907 4.230469 7.335938 1.726563 10.792969-7.894532 10.902344-20.632813 17.414062-34.074219 17.414062zm0 0" fill="#ed7a98"/><path d="m56.027344 405.828125v106.171875h-15.453125v-106.171875c0-4.261719 3.460937-7.722656 7.726562-7.722656 4.265625-.003907 7.726563 3.460937 7.726563 7.722656zm0 0" fill="#e79732"/><path d="m232.085938 405.828125v106.171875h-15.453126v-106.171875c0-4.261719 3.460938-7.722656 7.722657-7.722656 4.265625-.003907 7.730469 3.460937 7.730469 7.722656zm0 0" fill="#e79732"/><path d="m22.796875 89.296875v34.34375s64.375 22.910156 110.738281-19.542969c0 0 17.804688 56.601563 94.410156 68.269532 5.851563.890624 11.300782-3.191407 12.082032-9.058594l9.832031-74.011719zm0 0" fill="#ba6f3c"/><path d="m199.023438 218.730469c0 4.660156-3.773438 8.4375-8.433594 8.4375s-8.4375-3.777344-8.4375-8.4375c0-4.660157 3.777344-8.433594 8.4375-8.433594s8.433594 3.773437 8.433594 8.433594zm0 0" fill="#ed7a98"/><path d="m90.503906 218.730469c0 4.660156-3.777344 8.4375-8.433594 8.4375-4.660156 0-8.4375-3.777344-8.4375-8.4375 0-4.660157 3.777344-8.433594 8.4375-8.433594 4.65625 0 8.433594 3.773437 8.433594 8.433594zm0 0" fill="#ed7a98"/><path d="m159.511719 474.972656c0 12.804688-10.378907 23.183594-23.183594 23.183594s-23.183594-10.378906-23.183594-23.183594c0-12.804687 10.378907-23.183594 23.183594-23.183594s23.183594 10.378907 23.183594 23.183594zm0 0" fill="#ebeef2"/><path d="m127.574219 462.316406c-3.804688 0-7.117188-2.808594-7.644531-6.679687l-2.894532-21.203125c-.574218-4.230469 2.382813-8.125 6.613282-8.699219 4.226562-.582031 8.121093 2.382813 8.699218 6.609375l2.890625 21.203125c.578125 4.226563-2.382812 8.121094-6.609375 8.699219-.355468.050781-.707031.070312-1.054687.070312zm0 0" fill="#ebeef2"/><path d="m145.085938 462.316406c-.351563 0-.699219-.023437-1.054688-.070312-4.230469-.574219-7.1875-4.472656-6.613281-8.699219l2.894531-21.203125c.574219-4.226562 4.460938-7.191406 8.699219-6.609375 4.226562.574219 7.1875 4.46875 6.609375 8.699219l-2.890625 21.203125c-.527344 3.871093-3.84375 6.679687-7.644531 6.679687zm0 0" fill="#ebeef2"/></svg>