<svg height="512pt" viewBox="0 -26 512 512" width="512pt" xmlns="http://www.w3.org/2000/svg"><path d="m512 33.824219v414.90625c0 6.226562-5.039062 11.277343-11.277344 11.277343h-489.445312c-6.238282 0-11.277344-5.050781-11.277344-11.273437v-414.910156c0-18.671875 15.144531-33.824219 33.828125-33.824219h444.347656c18.679688 0 33.824219 15.152344 33.824219 33.824219zm0 0" fill="#ebeef2"/><path d="m512 33.820312v414.917969c0 6.222657-5.039062 11.269531-11.28125 11.269531h-22.664062c6.246093 0 11.28125-5.046874 11.28125-11.269531v-414.917969c0-18.667968-15.144532-33.820312-33.832032-33.820312h22.664063c18.6875 0 33.832031 15.152344 33.832031 33.820312zm0 0" fill="#d3d8df"/><path d="m512 33.820312v94.34375h-512v-94.34375c0-18.667968 15.144531-33.820312 33.832031-33.820312h444.335938c18.6875 0 33.832031 15.152344 33.832031 33.820312zm0 0" fill="#eb5777"/><path d="m512 33.820312v94.34375h-22.664062v-94.34375c0-18.667968-15.144532-33.820312-33.832032-33.820312h22.664063c18.6875 0 33.832031 15.152344 33.832031 33.820312zm0 0" fill="#ce3f63"/><path d="m236.496094 292.589844c0 50.03125-40.558594 90.589844-90.589844 90.589844-50.027344 0-90.585938-40.558594-90.585938-90.589844s40.558594-90.585938 90.585938-90.585938c50.03125 0 90.589844 40.554688 90.589844 90.585938zm0 0" fill="#eb5777"/><path d="m159.132812 319.261719h-5.195312v-61.070313c0-2.699218-1.414062-5.207031-3.722656-6.605468-2.308594-1.402344-5.183594-1.496094-7.578125-.242188l-13.523438 7.054688c-3.785156 1.972656-5.25 6.640624-3.277343 10.425781 1.972656 3.78125 6.640624 5.25 10.425781 3.277343l2.222656-1.160156v48.320313h-5.195313c-4.269531 0-7.726562 3.457031-7.726562 7.726562 0 4.265625 3.457031 7.726563 7.726562 7.726563h25.84375c4.265626 0 7.722657-3.460938 7.722657-7.726563 0-4.269531-3.457031-7.726562-7.722657-7.726562zm0 0" fill="#ebeef2"/><path d="m304.285156 216.898438h-10.347656c-4.269531 0-7.726562-3.457032-7.726562-7.726563 0-4.265625 3.460937-7.726563 7.726562-7.726563h10.347656c4.269532 0 7.726563 3.460938 7.726563 7.726563 0 4.269531-3.460938 7.726563-7.726563 7.726563zm0 0" fill="#eb5777"/><path d="m355.082031 216.898438h-10.347656c-4.265625 0-7.726563-3.457032-7.726563-7.726563 0-4.265625 3.460938-7.726563 7.726563-7.726563h10.347656c4.269531 0 7.726563 3.460938 7.726563 7.726563 0 4.269531-3.457032 7.726563-7.726563 7.726563zm0 0" fill="#eb5777"/><path d="m405.882812 216.898438h-10.351562c-4.265625 0-7.722656-3.457032-7.722656-7.726563 0-4.265625 3.457031-7.726563 7.722656-7.726563h10.351562c4.265626 0 7.722657 3.460938 7.722657 7.726563.003906 4.269531-3.457031 7.726563-7.722657 7.726563zm0 0" fill="#eb5777"/><path d="m456.679688 216.898438h-10.347657c-4.269531 0-7.726562-3.457032-7.726562-7.726563 0-4.265625 3.460937-7.726563 7.726562-7.726563h10.347657c4.269531 0 7.726562 3.460938 7.726562 7.726563 0 4.269531-3.457031 7.726563-7.726562 7.726563zm0 0" fill="#eb5777"/><g fill="#5f9eeb"><path d="m304.285156 256.738281h-10.347656c-4.269531 0-7.726562-3.457031-7.726562-7.726562 0-4.265625 3.460937-7.726563 7.726562-7.726563h10.347656c4.269532 0 7.726563 3.460938 7.726563 7.726563 0 4.269531-3.460938 7.726562-7.726563 7.726562zm0 0"/><path d="m355.082031 256.738281h-10.347656c-4.265625 0-7.726563-3.457031-7.726563-7.726562 0-4.265625 3.460938-7.726563 7.726563-7.726563h10.347656c4.269531 0 7.726563 3.460938 7.726563 7.726563 0 4.269531-3.457032 7.726562-7.726563 7.726562zm0 0"/><path d="m405.882812 256.738281h-10.351562c-4.265625 0-7.722656-3.457031-7.722656-7.726562 0-4.265625 3.457031-7.726563 7.722656-7.726563h10.351562c4.265626 0 7.722657 3.460938 7.722657 7.726563 0 4.269531-3.457031 7.726562-7.722657 7.726562zm0 0"/><path d="m456.679688 256.738281h-10.347657c-4.269531 0-7.726562-3.457031-7.726562-7.726562 0-4.265625 3.460937-7.726563 7.726562-7.726563h10.347657c4.269531 0 7.726562 3.460938 7.726562 7.726563 0 4.269531-3.457031 7.726562-7.726562 7.726562zm0 0"/><path d="m304.285156 296.578125h-10.347656c-4.269531 0-7.726562-3.457031-7.726562-7.726563 0-4.265624 3.460937-7.722656 7.726562-7.722656h10.347656c4.269532 0 7.726563 3.457032 7.726563 7.722656 0 4.269532-3.460938 7.726563-7.726563 7.726563zm0 0"/><path d="m355.082031 296.578125h-10.347656c-4.265625 0-7.726563-3.457031-7.726563-7.726563 0-4.265624 3.460938-7.722656 7.726563-7.722656h10.347656c4.269531 0 7.726563 3.457032 7.726563 7.722656 0 4.269532-3.457032 7.726563-7.726563 7.726563zm0 0"/><path d="m405.882812 296.578125h-10.351562c-4.265625 0-7.722656-3.457031-7.722656-7.726563 0-4.265624 3.457031-7.722656 7.722656-7.722656h10.351562c4.265626 0 7.722657 3.457032 7.722657 7.722656 0 4.269532-3.457031 7.726563-7.722657 7.726563zm0 0"/><path d="m456.679688 296.578125h-10.347657c-4.269531 0-7.726562-3.457031-7.726562-7.726563 0-4.265624 3.460937-7.722656 7.726562-7.722656h10.347657c4.269531 0 7.726562 3.457032 7.726562 7.722656 0 4.269532-3.457031 7.726563-7.726562 7.726563zm0 0"/><path d="m304.285156 336.421875h-10.347656c-4.269531 0-7.726562-3.460937-7.726562-7.726563 0-4.269531 3.460937-7.726562 7.726562-7.726562h10.347656c4.269532 0 7.726563 3.457031 7.726563 7.726562 0 4.265626-3.460938 7.726563-7.726563 7.726563zm0 0"/><path d="m355.082031 336.421875h-10.347656c-4.265625 0-7.726563-3.460937-7.726563-7.726563 0-4.269531 3.460938-7.726562 7.726563-7.726562h10.347656c4.269531 0 7.726563 3.457031 7.726563 7.726562 0 4.265626-3.457032 7.726563-7.726563 7.726563zm0 0"/><path d="m405.882812 336.421875h-10.351562c-4.265625 0-7.722656-3.460937-7.722656-7.726563 0-4.269531 3.457031-7.726562 7.722656-7.726562h10.351562c4.265626 0 7.722657 3.457031 7.722657 7.726562.003906 4.265626-3.457031 7.726563-7.722657 7.726563zm0 0"/><path d="m456.679688 336.421875h-10.347657c-4.269531 0-7.726562-3.460937-7.726562-7.726563 0-4.269531 3.460937-7.726562 7.726562-7.726562h10.347657c4.269531 0 7.726562 3.457031 7.726562 7.726562 0 4.265626-3.457031 7.726563-7.726562 7.726563zm0 0"/><path d="m304.285156 376.261719h-10.347656c-4.269531 0-7.726562-3.460938-7.726562-7.726563 0-4.269531 3.460937-7.726562 7.726562-7.726562h10.347656c4.269532 0 7.726563 3.457031 7.726563 7.726562 0 4.265625-3.460938 7.726563-7.726563 7.726563zm0 0"/><path d="m355.082031 376.261719h-10.347656c-4.265625 0-7.726563-3.460938-7.726563-7.726563 0-4.269531 3.460938-7.726562 7.726563-7.726562h10.347656c4.269531 0 7.726563 3.457031 7.726563 7.726562 0 4.265625-3.457032 7.726563-7.726563 7.726563zm0 0"/><path d="m405.882812 376.261719h-10.351562c-4.265625 0-7.722656-3.460938-7.722656-7.726563 0-4.269531 3.457031-7.726562 7.722656-7.726562h10.351562c4.265626 0 7.722657 3.457031 7.722657 7.726562 0 4.265625-3.457031 7.726563-7.722657 7.726563zm0 0"/><path d="m456.679688 376.261719h-10.347657c-4.269531 0-7.726562-3.460938-7.726562-7.726563 0-4.269531 3.460937-7.726562 7.726562-7.726562h10.347657c4.269531 0 7.726562 3.457031 7.726562 7.726562 0 4.265625-3.457031 7.726563-7.726562 7.726563zm0 0"/></g><path d="m206.875 93.691406h-10.160156c-11.3125 0-20.515625-9.203125-20.515625-20.511718v-18.1875c0-11.3125 9.203125-20.515626 20.515625-20.515626h10.160156c11.3125 0 20.511719 9.203126 20.511719 20.515626v18.183593c0 11.3125-9.199219 20.515625-20.511719 20.515625zm-10.160156-43.761718c-2.792969 0-5.0625 2.269531-5.0625 5.0625v18.183593c0 2.792969 2.269531 5.058594 5.0625 5.058594h10.160156c2.789062 0 5.058594-2.269531 5.058594-5.058594v-18.183593c0-2.792969-2.269532-5.0625-5.058594-5.0625zm0 0" fill="#ebeef2"/><path d="m328.070312 49.929688h-32.710937c-4.265625 0-7.726563-3.457032-7.726563-7.726563 0-4.265625 3.460938-7.722656 7.726563-7.722656h32.710937c4.269532 0 7.726563 3.457031 7.726563 7.722656 0 4.269531-3.457031 7.726563-7.726563 7.726563zm0 0" fill="#ebeef2"/><path d="m264.359375 93.691406h-10.160156c-11.3125 0-20.515625-9.203125-20.515625-20.511718v-18.1875c0-11.3125 9.203125-20.515626 20.515625-20.515626h10.160156c9.199219 0 17.328125 6.199219 19.769531 15.078126 1.128906 4.113281-1.289062 8.363281-5.402344 9.496093-4.117187 1.136719-8.367187-1.289062-9.5-5.402343-.601562-2.1875-2.601562-3.71875-4.867187-3.71875h-10.160156c-2.789063 0-5.058594 2.269531-5.058594 5.0625v18.183593c0 2.792969 2.269531 5.058594 5.058594 5.058594h10.160156c1.960937 0 3.710937-1.109375 4.5625-2.894531 1.835937-3.855469 6.449219-5.488282 10.300781-3.652344 3.851563 1.835938 5.484375 6.445312 3.648438 10.296875-3.386719 7.113281-10.65625 11.707031-18.511719 11.707031zm0 0" fill="#ebeef2"/><path d="m311.714844 93.691406c-4.265625 0-7.726563-3.460937-7.726563-7.726562v-41.878906c0-4.269532 3.460938-7.726563 7.726563-7.726563 4.269531 0 7.726562 3.457031 7.726562 7.726563v41.878906c0 4.265625-3.457031 7.726562-7.726562 7.726562zm0 0" fill="#ebeef2"/><path d="m67.890625 417.523438c-.027344 0-.046875 0-.070313 0h-.113281c-4.269531-.039063-7.695312-3.53125-7.65625-7.796876.035157-4.242187 3.488281-7.65625 7.722657-7.65625h.070312.113281c4.265625.039063 7.695313 3.527344 7.65625 7.796876-.039062 4.242187-3.488281 7.65625-7.722656 7.65625zm0 0" fill="#5f9eeb"/><path d="m89.226562 417.523438c-.027343 0-.046874 0-.070312 0h-.113281c-4.269531-.039063-7.695313-3.53125-7.65625-7.796876.035156-4.242187 3.488281-7.65625 7.722656-7.65625h.070313.113281c4.265625.039063 7.695312 3.527344 7.65625 7.796876-.039063 4.242187-3.488281 7.65625-7.722657 7.65625zm0 0" fill="#5f9eeb"/></svg>