<svg height="464pt" viewBox="0 -88 464 464" width="464pt" xmlns="http://www.w3.org/2000/svg"><path d="m304 0h80c44.183594 0 80 35.816406 80 80v80c0 44.183594-35.816406 80-80 80h-160v-160c0-44.183594 35.816406-80 80-80zm0 0" fill="#e94f4f"/><path d="m0 192h224v48h-224zm0 0" fill="#ffb531"/><path d="m16 288c-8.835938 0-16-7.164062-16-16v-32h32v32c0 8.835938-7.164062 16-16 16zm0 0" fill="#e0e0de"/><g fill="#f57e00"><path d="m24 192h16v24h-16zm0 0"/><path d="m56 192h16v24h-16zm0 0"/><path d="m88 192h16v24h-16zm0 0"/><path d="m120 192h16v24h-16zm0 0"/><path d="m152 192h16v24h-16zm0 0"/><path d="m184 192h16v24h-16zm0 0"/></g><path d="m227.671875 56h-43.671875v96h40v-72c-.003906-8.140625 1.234375-16.234375 3.671875-24zm0 0" fill="#3d4d63"/><path d="m400.304688 1.671875c-35.402344 136.152344-113.351563 204.519531-175.503907 238.328125h159.199219c44.183594 0 80-35.816406 80-80v-80c.003906-37.902344-26.589844-70.605469-63.695312-78.328125zm0 0" fill="#e04646"/><path d="m424 120c0 44.183594-35.816406 80-80 80s-80-35.816406-80-80 35.816406-80 80-80 80 35.816406 80 80zm0 0" fill="#ccccca"/><path d="m400 120c0 30.929688-25.070312 56-56 56s-56-25.070312-56-56 25.070312-56 56-56 56 25.070312 56 56zm0 0" fill="#d6d6d4"/><path d="m323.265625 85.785156-8.3125-13.671875c5.476563-3.335937 11.492187-5.691406 17.773437-6.96875l3.203126 15.671875c-4.476563.914063-8.761719 2.597656-12.664063 4.96875zm0 0" fill="#ebebe9"/><path d="m293.238281 143.6875c-9.804687-21.058594-5.605469-45.988281 10.5625-62.671875l11.480469 11.144531c-11.554688 11.914063-14.554688 29.722656-7.539062 44.761719zm0 0" fill="#ebebe9"/><path d="m200 240h24v-48zm0 0" fill="#f7a116"/></svg>