<?xml version="1.0" encoding="iso-8859-1"?>
<!-- Generator: Adobe Illustrator 19.0.0, SVG Export Plug-In . SVG Version: 6.00 Build 0)  -->
<svg version="1.1" id="Capa_1" xmlns="http://www.w3.org/2000/svg" xmlns:xlink="http://www.w3.org/1999/xlink" x="0px" y="0px"
	 viewBox="0 0 512 512" style="enable-background:new 0 0 512 512;" xml:space="preserve">
<path style="fill:#4398D1;" d="M503.172,180.966c-39.839-2.631-79.616,6.029-114.759,24.982V419.31h35.31L512,507.586V180.966
	H503.172z"/>
<path style="fill:#F2BB80;" d="M357.605,227.222l-42.019-18.185c-43.07-18.458-92.769-12.067-129.766,16.684l-44.579,34.692
	l97.103-185.379L256,101.517h88.276V4.414H229.517L52.966,128L0,286.897L132.414,419.31h256V205.948
	C377.485,212.039,367.166,219.162,357.605,227.222z"/>
<polygon style="fill:#3E8CC7;" points="388.414,419.31 423.724,419.31 512,507.586 512,339.862 388.414,339.862 "/>
<polygon style="fill:#EBB071;" points="52.966,339.862 132.414,419.31 388.414,419.31 388.414,339.862 "/>
<path style="fill:#E39D54;" d="M282.483,357.517h-59.674c-26.324,0.053-51.588-10.408-70.179-29.043l12.535-12.535
	c15.228,15.386,35.999,24.002,57.644,23.923h59.674V357.517z"/>
<g>
</g>
<g>
</g>
<g>
</g>
<g>
</g>
<g>
</g>
<g>
</g>
<g>
</g>
<g>
</g>
<g>
</g>
<g>
</g>
<g>
</g>
<g>
</g>
<g>
</g>
<g>
</g>
<g>
</g>
</svg>
