<?xml version="1.0" encoding="iso-8859-1"?>
<!-- Generator: Adobe Illustrator 19.0.0, SVG Export Plug-In . SVG Version: 6.00 Build 0)  -->
<svg version="1.1" id="Capa_1" xmlns="http://www.w3.org/2000/svg" xmlns:xlink="http://www.w3.org/1999/xlink" x="0px" y="0px"
	 viewBox="0 0 512 512" style="enable-background:new 0 0 512 512;" xml:space="preserve">
<path style="fill:#4398D1;" d="M150.069,43.954H52.966C23.711,43.954,0,67.665,0,96.919V458.85
	c0,29.255,23.711,52.966,52.966,52.966l0,0h406.069c29.255,0,52.966-23.711,52.966-52.966l0,0V96.919
	c0-29.255-23.711-52.966-52.966-52.966H150.069z"/>
<path style="fill:#3E8CC7;" d="M459.034,43.954H438.29C387.884,184.577,290.251,382.58,113.435,511.816h345.6
	c29.255,0,52.966-23.711,52.966-52.966l0,0V96.919C512,67.665,488.289,43.954,459.034,43.954z"/>
<path style="fill:#FDB62F;" d="M361.931,43.954c-58.703-58.5-153.724-58.342-212.233,0.371s-58.333,153.724,0.371,212.224
	s153.724,58.342,212.233-0.371c28.125-28.222,43.864-66.463,43.767-106.302C406.016,110.117,390.135,71.999,361.931,43.954z"/>
<circle style="fill:#E5E5E5;" cx="256" cy="149.885" r="114.759"/>
<path style="fill:#DE4C3C;" d="M264.828,124.991V88.092h-17.655v36.899c-13.789,4.873-21.018,20.003-16.137,33.792
	c4.873,13.789,20.003,21.018,33.792,16.137c13.789-4.873,21.018-20.003,16.137-33.792
	C278.298,133.589,272.366,127.657,264.828,124.991z"/>
<g>
	<rect x="247.172" y="229.333" style="fill:#CFCFCF;" width="17.655" height="35.31"/>
	<rect x="247.172" y="35.126" style="fill:#CFCFCF;" width="17.655" height="35.31"/>
	<rect x="335.448" y="141.057" style="fill:#CFCFCF;" width="35.31" height="17.655"/>
	<rect x="141.241" y="141.057" style="fill:#CFCFCF;" width="35.31" height="17.655"/>
	
		<rect x="315.87" y="200.873" transform="matrix(-0.7071 0.7071 -0.7071 -0.7071 708.8155 143.4552)" style="fill:#CFCFCF;" width="17.655" height="35.31"/>
	
		<rect x="178.483" y="63.573" transform="matrix(-0.7071 0.7071 -0.7071 -0.7071 377.1966 6.2163)" style="fill:#CFCFCF;" width="17.655" height="35.31"/>
	
		<rect x="307.016" y="72.395" transform="matrix(-0.7071 0.7071 -0.7071 -0.7071 611.6817 -90.9211)" style="fill:#CFCFCF;" width="35.31" height="17.655"/>
	
		<rect x="169.663" y="209.712" transform="matrix(-0.7071 0.7071 -0.7071 -0.7071 474.3029 240.6166)" style="fill:#CFCFCF;" width="35.31" height="17.655"/>
</g>
<g>
	<path style="fill:#3F7DB8;" d="M189.793,352.919c-7.309,0-13.241-5.932-13.241-13.241s5.932-13.241,13.241-13.241
		s13.241,5.932,13.241,13.241S197.102,352.919,189.793,352.919z"/>
	<path style="fill:#3F7DB8;" d="M189.793,414.712c-7.309,0-13.241-5.932-13.241-13.241s5.932-13.241,13.241-13.241
		s13.241,5.932,13.241,13.241S197.102,414.712,189.793,414.712z"/>
	<path style="fill:#3F7DB8;" d="M189.793,476.505c-7.309,0-13.241-5.932-13.241-13.241s5.932-13.241,13.241-13.241
		s13.241,5.932,13.241,13.241l0,0C203.034,470.582,197.102,476.505,189.793,476.505z"/>
	<path style="fill:#3F7DB8;" d="M145.655,317.609c-7.309,0-13.241-5.932-13.241-13.241s5.932-13.241,13.241-13.241
		s13.241,5.932,13.241,13.241S152.964,317.609,145.655,317.609z"/>
	<path style="fill:#3F7DB8;" d="M145.655,379.402c-7.309,0-13.241-5.932-13.241-13.241s5.932-13.241,13.241-13.241
		s13.241,5.932,13.241,13.241S152.964,379.402,145.655,379.402z"/>
	<path style="fill:#3F7DB8;" d="M145.655,441.195c-7.309,0-13.241-5.932-13.241-13.241s5.932-13.241,13.241-13.241
		s13.241,5.932,13.241,13.241S152.964,441.195,145.655,441.195z"/>
	<path style="fill:#3F7DB8;" d="M101.517,352.919c-7.309,0-13.241-5.932-13.241-13.241s5.932-13.241,13.241-13.241
		s13.241,5.932,13.241,13.241S108.826,352.919,101.517,352.919z"/>
	<path style="fill:#3F7DB8;" d="M101.517,414.712c-7.309,0-13.241-5.932-13.241-13.241s5.932-13.241,13.241-13.241
		s13.241,5.932,13.241,13.241S108.826,414.712,101.517,414.712z"/>
	<path style="fill:#3F7DB8;" d="M101.517,476.505c-7.309,0-13.241-5.932-13.241-13.241s5.932-13.241,13.241-13.241
		s13.241,5.932,13.241,13.241l0,0C114.759,470.582,108.826,476.505,101.517,476.505z"/>
	<path style="fill:#3F7DB8;" d="M57.379,317.609c-7.309,0-13.241-5.932-13.241-13.241s5.932-13.241,13.241-13.241
		s13.241,5.932,13.241,13.241S64.689,317.609,57.379,317.609z"/>
	<path style="fill:#3F7DB8;" d="M57.379,255.816c-7.309,0-13.241-5.932-13.241-13.241s5.932-13.241,13.241-13.241
		s13.241,5.932,13.241,13.241l0,0C70.621,249.893,64.689,255.816,57.379,255.816z"/>
	<path style="fill:#3F7DB8;" d="M57.379,379.402c-7.309,0-13.241-5.932-13.241-13.241s5.932-13.241,13.241-13.241
		s13.241,5.932,13.241,13.241S64.689,379.402,57.379,379.402z"/>
	<path style="fill:#3F7DB8;" d="M57.379,441.195c-7.309,0-13.241-5.932-13.241-13.241s5.932-13.241,13.241-13.241
		s13.241,5.932,13.241,13.241S64.689,441.195,57.379,441.195z"/>
	<path style="fill:#3F7DB8;" d="M101.517,291.126c-7.309,0-13.241-5.932-13.241-13.241s5.932-13.241,13.241-13.241
		s13.241,5.932,13.241,13.241C114.759,285.203,108.826,291.126,101.517,291.126z"/>
	<path style="fill:#3F7DB8;" d="M308.966,339.678c0-7.309,5.932-13.241,13.241-13.241s13.241,5.932,13.241,13.241
		s-5.932,13.241-13.241,13.241S308.966,346.996,308.966,339.678z"/>
	<path style="fill:#3F7DB8;" d="M308.966,401.471c0-7.309,5.932-13.241,13.241-13.241s13.241,5.932,13.241,13.241
		s-5.932,13.241-13.241,13.241S308.966,408.789,308.966,401.471z"/>
	<path style="fill:#3F7DB8;" d="M308.966,463.264c0-7.309,5.932-13.241,13.241-13.241s13.241,5.932,13.241,13.241
		s-5.932,13.241-13.241,13.241l0,0C314.898,476.505,308.966,470.582,308.966,463.264z"/>
	<path style="fill:#3F7DB8;" d="M353.103,304.368c0-7.309,5.932-13.241,13.241-13.241s13.241,5.932,13.241,13.241
		s-5.932,13.241-13.241,13.241S353.103,311.686,353.103,304.368z"/>
	<path style="fill:#3F7DB8;" d="M353.103,366.161c0-7.309,5.932-13.241,13.241-13.241s13.241,5.932,13.241,13.241
		s-5.932,13.241-13.241,13.241S353.103,373.479,353.103,366.161z"/>
	<path style="fill:#3F7DB8;" d="M353.103,427.954c0-7.309,5.932-13.241,13.241-13.241s13.241,5.932,13.241,13.241
		s-5.932,13.241-13.241,13.241S353.103,435.272,353.103,427.954z"/>
	<path style="fill:#3F7DB8;" d="M397.241,339.678c0-7.309,5.932-13.241,13.241-13.241s13.241,5.932,13.241,13.241
		s-5.932,13.241-13.241,13.241S397.241,346.996,397.241,339.678z"/>
	<path style="fill:#3F7DB8;" d="M397.241,401.471c0-7.309,5.932-13.241,13.241-13.241s13.241,5.932,13.241,13.241
		s-5.932,13.241-13.241,13.241S397.241,408.789,397.241,401.471z"/>
	<path style="fill:#3F7DB8;" d="M397.241,463.264c0-7.309,5.932-13.241,13.241-13.241s13.241,5.932,13.241,13.241
		s-5.932,13.241-13.241,13.241l0,0C403.174,476.505,397.241,470.582,397.241,463.264z"/>
	<path style="fill:#3F7DB8;" d="M441.379,304.368c0-7.309,5.932-13.241,13.241-13.241s13.241,5.932,13.241,13.241
		s-5.932,13.241-13.241,13.241S441.379,311.686,441.379,304.368z"/>
	<path style="fill:#3F7DB8;" d="M441.379,242.574c0-7.309,5.932-13.241,13.241-13.241s13.241,5.932,13.241,13.241
		s-5.932,13.241-13.241,13.241l0,0C447.311,255.816,441.379,249.893,441.379,242.574z"/>
	<path style="fill:#3F7DB8;" d="M441.379,366.161c0-7.309,5.932-13.241,13.241-13.241s13.241,5.932,13.241,13.241
		s-5.932,13.241-13.241,13.241S441.379,373.479,441.379,366.161z"/>
	<path style="fill:#3F7DB8;" d="M441.379,427.954c0-7.309,5.932-13.241,13.241-13.241s13.241,5.932,13.241,13.241
		s-5.932,13.241-13.241,13.241S441.379,435.272,441.379,427.954z"/>
	<path style="fill:#3F7DB8;" d="M397.241,277.885c0-7.309,5.932-13.241,13.241-13.241s13.241,5.932,13.241,13.241
		s-5.932,13.241-13.241,13.241S397.241,285.203,397.241,277.885z"/>
	<path style="fill:#3F7DB8;" d="M256,467.678c-4.873,0-8.828-3.955-8.828-8.828V352.919c0-4.873,3.955-8.828,8.828-8.828
		s8.828,3.955,8.828,8.828V458.85C264.828,463.723,260.873,467.678,256,467.678z"/>
</g>
<g>
</g>
<g>
</g>
<g>
</g>
<g>
</g>
<g>
</g>
<g>
</g>
<g>
</g>
<g>
</g>
<g>
</g>
<g>
</g>
<g>
</g>
<g>
</g>
<g>
</g>
<g>
</g>
<g>
</g>
</svg>
